<svg xmlns="http://www.w3.org/2000/svg"><symbol viewBox="0 0 22 12" id="icon-vk"><path d="M17.6 12c-.3 0-.9-.1-1.5-.5-.5-.3-.9-.7-1.3-1.2-.3-.3-.9-.9-1.1-.9-.2.1-.4.7-.3 1.2 0 .1 0 .6-.3.9-.3.3-.8.4-.9.4h-1.4c-.7 0-3.2-.2-5.4-2.3C2.5 7.1.2 2.2.1 2 0 1.6-.1 1.2.2.9s.8-.4 1-.4h3.1c.1 0 .4.1.7.3.3.2.4.5.5.6.7 1.5 1.5 2.8 2.6 4 .1-.4.2-1.4.1-2.3 0-.4-.1-.8-.2-1-.1-.1-.3-.2-.5-.2l-.6-.5c0-.5.5-.9.9-1.1.5-.2 1.3-.3 2.3-.3h.5c.9 0 1.2.1 1.6.1 1.2.3 1.2 1.3 1.1 2.5v1.6c0 .3 0 .8.1 1 .2-.1.6-.5 1.5-1.9.6-.9 1-1.9 1.1-2.1.1-.3.4-.7 1.2-.7h3.4c.7 0 1.2.2 1.3.7.2.5.1 1.3-1.7 3.5-.3.3-.5.6-.7.9-.5.4-.9 1-.9 1.1s.5.5.9.9c1.1.9 1.9 1.7 2.2 2.3.4.6.3 1 .2 1.3-.3.7-1.2.7-1.4.8h-2.9zm-3.9-3.7c.7 0 1.2.6 1.8 1.2.4.4.7.8 1.1 1 .5.3 1 .3 1 .3h2.9c.1 0 .3-.1.4-.1 0 0 0-.1-.1-.1-.3-.5-1-1.3-2-2.1-.9-.7-1.3-1.1-1.4-1.7 0-.6.4-1.1 1.2-2.1.2-.2.4-.5.7-.8 1.1-1.4 1.4-2 1.5-2.3h-3.9c0 .4-.5 1.5-1.1 2.4-1.4 2.1-2 2.4-2.5 2.4-.1 0-.3 0-.4-.1-.7-.4-.7-1.4-.7-2.1V2.6c.1-1.3 0-1.3-.3-1.4-.3-.1-.5-.1-1.4-.1H10c-.5 0-1 0-1.4.1l.2.2c.4.5.4 1.5.4 1.7.1 1.3 0 2.9-.7 3.3-.1 0-.2.1-.4.1-.6 0-1.3-.7-2.5-2.5C5 2.9 4.5 1.8 4.5 1.8s0-.1-.1-.1-.2-.1-.2-.1h-3c.4.9 2.5 5 4.8 7.2 2 1.9 4.3 2 4.7 2h1.4s.2 0 .2-.1v-.1c0-.2 0-2 1.2-2.3h.2z"/></symbol><symbol viewBox="0 0 16.1 16" id="icon-instagram"><path d="M11.8 1C13.6 1 15 2.4 15 4.2v7.7c0 1.7-1.4 3.1-3.1 3.1H4.2C2.4 15 1 13.6 1 11.8V4.2C1 2.4 2.4 1 4.2 1h7.6m0-1H4.2C1.9 0 0 1.9 0 4.2v7.7C0 14.1 1.9 16 4.2 16h7.7c2.3 0 4.2-1.9 4.2-4.2V4.2C16 1.9 14.1 0 11.8 0z"/><path d="M8 4.9c1.7 0 3.1 1.4 3.1 3.1S9.7 11.1 8 11.1 4.9 9.7 4.9 8 6.3 4.9 8 4.9m0-1C5.7 3.9 3.9 5.7 3.9 8s1.8 4.1 4.1 4.1 4.1-1.8 4.1-4.1S10.3 3.9 8 3.9z"/><circle cx="12.3" cy="3.7" r=".9"/></symbol><symbol viewBox="0 0 10 19" id="icon-facebook"><path d="M7.1 19H2v-8.8H0V5.8h1.9c-.1-2 .2-3.4 1.1-4.4C3.8.5 5 .1 6.5 0H10v4.2H7.2c-.1.2-.2.8-.2 1.6h3v4.4H7.1V19zm-4-1h2.8V9.1h2.9V6.8H5.9v-.5c0-1.4 0-2.6.7-3.1l.1-.1h2.1V1H6.5c-1.2.1-2 .4-2.6 1-.8.8-1 2.3-.8 4.2l.1.6H1.1v2.3h2V18z"/></symbol>

<symbol viewBox="0 0 60 60" id="icon-plus">
<line x1="31" x2="31" y2="60" stroke="#D3D3D3" stroke-width="2"/>
<line x1="60" y1="31" y2="31" stroke="#D3D3D3" stroke-width="2"/>
</symbol>

<symbol id="icon-gift" viewBox="0 0 55.5 60"><path d="M52.3 12.2h-7c.5-.7.8-1.4 1.1-2.2.6-2 .4-4.1-.6-5.9-1-1.8-2.6-3.1-4.6-3.7-2-.6-4.1-.4-5.9.6-3.6 2-6.2 6.1-7.6 9-1.4-2.9-4-7.1-7.6-9-3.8-2-8.5-.6-10.5 3.1-1.4 2.7-1.2 5.8.5 8.1h-7c-1.7 0-3.1 1.4-3.1 3.1v9.4c0 1.7 1.4 3.1 3.1 3.1H4v26.1c0 3.3 2.7 6 6 6h35.5c3.3 0 6-2.7 6-6V27.8h.8c1.7 0 3.1-1.4 3.1-3.1v-9.4c.1-1.7-1.3-3.1-3.1-3.1zM36.5 3c1.3-.7 2.7-.8 4.1-.4 1.3.4 2.4 1.3 3.1 2.6.7 1.3.8 2.7.4 4.1-.4 1.2-1.1 2.2-2.2 2.9H29.4C30.5 9.6 33 5 36.5 3zM11.7 5.2C13.2 2.6 16.4 1.6 19 3c3.5 1.9 6 6.6 7.1 9.1H13.5c-2.3-1.4-3.1-4.5-1.8-6.9zm14.8 22.6v13.7H6.4V27.8h20.1zM6.4 53.9v-10h20.2v13.7H10c-2 0-3.6-1.7-3.6-3.7zm39.1 3.7H28.9V43.9h20.2v10c0 2-1.6 3.7-3.6 3.7zm3.6-16.1H28.9V27.8h20.2v13.7zm4-16.8c0 .4-.3.7-.7.7H3.2c-.4 0-.7-.3-.7-.7v-9.4c0-.4.3-.7.7-.7h49.2c.4 0 .7.3.7.7v9.4z"/></symbol>

<symbol id="icon-email" viewBox="0 0 17 13"><path d="M15.6 11.6H1.4V5.8H0V13h17V5.8h-1.4v5.8zM0 0v2.3l8.5 7.1L17 2.3V0H0zm15.6 1.6L8.5 7.5 1.4 1.6v-.2h14.2v.2z"/></symbol>

<symbol viewBox="0 0 20 20" id="icon-phone">
<g clip-path="url(#clip0)">
<path d="M17.9 9.4H9.40002V10.6H17.9L15.8 12.7L16.7 13.6L19.8 10.5C19.8974 10.3702 19.95 10.2123 19.95 10.05C19.95 9.88772 19.8974 9.72982 19.8 9.6L16.7 6.5L15.8 7.4L17.9 9.4Z" fill="black"/>
<path d="M8.09995 19.4V13.2C8.0884 13.0447 8.02148 12.8987 7.91136 12.7886C7.80125 12.6785 7.65525 12.6116 7.49995 12.6H3.09995C3.1051 12.9167 3.23318 13.2189 3.45712 13.4428C3.68106 13.6668 3.9833 13.7949 4.29995 13.8H6.79995V18.8H3.09995C2.86319 18.8149 2.62585 18.7825 2.4017 18.7048C2.17756 18.6271 1.97109 18.5057 1.7943 18.3475C1.61751 18.1893 1.47393 17.9976 1.37189 17.7834C1.26986 17.5693 1.21142 17.337 1.19995 17.1V3.10001C1.19175 2.6373 1.3651 2.18977 1.68286 1.85331C2.00062 1.51686 2.43752 1.31824 2.89995 1.30001H6.79995V6.30001H4.39995C4.0833 6.30516 3.78106 6.43324 3.55712 6.65718C3.33318 6.88112 3.2051 7.18336 3.19995 7.50001H7.59995C7.75525 7.48846 7.90125 7.42154 8.01136 7.31142C8.12148 7.2013 8.1884 7.05531 8.19995 6.90001V0.600012C8.15226 0.443872 8.06111 0.304534 7.93715 0.198285C7.81319 0.0920352 7.66155 0.0232649 7.49995 1.23734e-05H3.09995C2.70593 -0.0133408 2.31315 0.0511002 1.94405 0.189651C1.57495 0.328202 1.23678 0.538145 0.948872 0.807477C0.660965 1.07681 0.428969 1.40025 0.266146 1.7593C0.103324 2.11835 0.0128689 2.50598 -4.64045e-05 2.90001V16.8C-0.0290254 17.1977 0.0245894 17.597 0.157426 17.9729C0.290263 18.3489 0.499448 18.6932 0.771825 18.9844C1.0442 19.2756 1.37388 19.5072 1.74012 19.6648C2.10637 19.8224 2.50126 19.9024 2.89995 19.9H7.49995C7.57344 19.915 7.64937 19.9133 7.7221 19.895C7.79484 19.8767 7.86253 19.8423 7.92015 19.7942C7.97777 19.7462 8.02385 19.6859 8.05497 19.6176C8.0861 19.5494 8.10147 19.475 8.09995 19.4Z" fill="black"/>
</g>
<defs>
<clipPath id="clip0">
<rect width="20" height="20" fill="white"/>
</clipPath>
</defs>
</symbol>


<symbol viewBox="0 0 27 34" id="logo-academy">
<path d="M13.6426 0.0157537L13.5 0L0 1.40733V26.0129L13.5 34L27 26.0129V1.40733L13.6426 0.0157537ZM25.2344 25.0151L13.5 31.9573L1.76561 25.0151V14.9293L13.4507 21.8451L13.4701 23.0984L5.45351 18.3548L5.44295 19.5801L13.4894 24.3885L13.5088 25.675L5.46408 20.9174L5.45351 22.1427L13.5 26.9511L21.6239 22.1182V20.8929V16.909L25.2432 14.7595L25.2344 25.0151ZM25.2344 13.4519L22.0147 15.3319L20.5325 16.2071L13.4666 12.0201L13.456 13.2454L19.4957 16.818L19.4429 16.8495L19.3126 16.9247L18.4536 17.4166L13.4666 14.4689L13.456 15.6942L17.3921 18.0222L16.4591 18.6314L16.438 18.6436L13.4666 16.902L13.456 18.1273L15.4029 19.2615L13.4155 20.4483L1.7973 13.5762L13.4349 6.61831L25.2344 13.4519ZM25.2344 12.2266L13.4401 5.31075L1.76561 12.2196V2.9897L13.5 1.76442L25.2344 2.9897V12.2266Z" fill="#666666"/>
</symbol></svg>
